<svg width="20" height="20" viewBox="0 0 20 20" fill="none" xmlns="http://www.w3.org/2000/svg">
<path d="M16.1497 7.45667C14.7442 7.45667 13.6008 8.60008 13.6008 10.0055C13.6008 11.411 14.7442 12.5544 16.1497 12.5544C17.5551 12.5544 18.6985 11.411 18.6985 10.0055C18.6985 8.60008 17.5551 7.45667 16.1497 7.45667ZM16.1497 11.5539C15.2959 11.5539 14.6012 10.8593 14.6012 10.0055C14.6012 9.15173 15.2959 8.45711 16.1497 8.45711C17.0034 8.45711 17.698 9.15173 17.698 10.0055C17.698 10.8593 17.0034 11.5539 16.1497 11.5539ZM9.84619 7.45667C8.44076 7.45667 7.29736 8.60008 7.29736 10.0055C7.29736 11.411 8.44074 12.5544 9.84619 12.5544C11.2516 12.5544 12.395 11.411 12.395 10.0055C12.395 8.60008 11.2516 7.45667 9.84619 7.45667ZM9.84619 11.5539C8.99241 11.5539 8.29782 10.8593 8.29782 10.0055C8.29782 9.15173 8.99241 8.45711 9.84619 8.45711C10.7 8.45711 11.3946 9.15173 11.3946 10.0055C11.3946 10.8593 10.7 11.5539 9.84619 11.5539ZM3.85799 7.45667C2.45256 7.45667 1.30916 8.60008 1.30916 10.0055C1.30916 11.411 2.45256 12.5544 3.85799 12.5544C5.26342 12.5544 6.40682 11.411 6.40682 10.0055C6.40682 8.60008 5.26344 7.45667 3.85799 7.45667ZM3.85799 11.5539C3.00421 11.5539 2.3096 10.8593 2.3096 10.0055C2.3096 9.15173 3.00421 8.45711 3.85799 8.45711C4.71177 8.45711 5.40638 9.15173 5.40638 10.0055C5.40638 10.8593 4.71177 11.5539 3.85799 11.5539Z" fill="#959595"/>
</svg>
