<?xml version="1.0" ?><!DOCTYPE svg  PUBLIC '-//W3C//DTD SVG 1.1//EN'  'http://www.w3.org/Graphics/SVG/1.1/DTD/svg11.dtd'><svg height="8.4666mm" style="shape-rendering:geometricPrecision; text-rendering:geometricPrecision; image-rendering:optimizeQuality; fill-rule:evenodd; clip-rule:evenodd" version="1.1" viewBox="0 0 846.66 846.66" width="8.4666mm" xml:space="preserve" xmlns="http://www.w3.org/2000/svg" xmlns:xlink="http://www.w3.org/1999/xlink"><defs><style type="text/css">
   <![CDATA[
    .fil0 {fill:black;fill-rule:nonzero}
   ]]>
  </style></defs><g id="Layer_x0020_1"><path class="fil0" d="M520.43 316.49c7.99,-8.22 21.13,-8.4 29.35,-0.41l117.23 113.84 122.71 -126.36 -213.87 -207.69c-77.01,79.3 -154.02,158.6 -231.03,237.9l81.75 79.38 93.86 -96.66zm-0.94 472.57c-7.99,8.22 -21.14,8.4 -29.36,0.41l-58.88 -57.18 -60.53 62.33c-7.99,8.22 -21.14,8.4 -29.35,0.41l-243.66 -236.61c-8.22,-8 -8.4,-21.14 -0.41,-29.36l60.51 -62.31 -144.7 -140.52c-8.22,-7.99 -8.4,-21.13 -0.41,-29.35l236.62 -243.66c7.99,-8.22 21.14,-8.4 29.36,-0.41l144.67 140.49 137.18 -141.26c8,-8.22 21.14,-8.4 29.36,-0.41l243.66 236.62c8.22,7.99 8.4,21.13 0.41,29.35l-137.17 141.24 58.91 57.21c8.22,7.99 8.4,21.13 0.4,29.35 -78.87,81.22 -157.74,162.44 -236.61,243.66zm125.72 -189.07l-96.66 -93.86c-19.57,-19.04 9.37,-48.81 28.95,-29.77l96.64 93.85 37.72 -38.85 -176.12 -171.04 -93.86 96.66c-7.99,8.22 -21.14,8.4 -29.36,0.4l-111.53 -108.3c-8.22,-7.99 -8.4,-21.14 -0.41,-29.36l93.84 -96.63 -129.79 -126.04 -207.69 213.87c149.08,144.77 298.16,289.54 447.24,434.31l37.72 -38.85 -96.66 -93.87c-19.57,-19.03 9.37,-48.8 28.95,-29.76l96.64 93.84 22.73 -23.4 -96.67 -93.87c-19.57,-19.04 9.37,-48.81 28.95,-29.77l96.64 93.85 22.73 -23.41zm-243.74 103.37l-213.88 -207.68 -46.05 47.42 213.87 207.69 46.06 -47.43z"/></g></svg>